# xmcd CD database file
#
# Track frame offsets:
#	150
#	13393
#	24547
#	41842
#	54574
#	69945
#	83124
#	95210
#	112070
#	124672
#	140293
#	161995
#
# Disc length: 2329 seconds
#
# Revision: 0
# Processed by: cddbd v1.5.1PL2 Copyright (c) Steve Scherf et al.
# Submitted via: CDex 1.51
#
DISCID=ab09170c
DTITLE=Sherry Leece - A New Leece On Life
DYEAR=2005
DGENRE=Country
TTITLE0=Grandma's Yard
TTITLE1=I'm Knockin' Wood
TTITLE2=Picking Up
TTITLE3=Cowboy Under the G
TTITLE4=It's Your Lie
TTITLE5=No Better Than This
TTITLE6=Texarkana Waltz
TTITLE7=Roundbale Motel
TTITLE8=You Can't Two Step
TTITLE9=I Don't Sing No Songs
TTITLE10=A Little Prayer
TTITLE11=Country Love
EXTD=YEAR: 2005
EXTT0=
EXTT1=
EXTT2=
EXTT3=
EXTT4=
EXTT5=
EXTT6=
EXTT7=
EXTT8=
EXTT9=
EXTT10=
EXTT11=
PLAYORDER=
